<svg width="745" height="685" viewBox="0 0 745 685" fill="none" xmlns="http://www.w3.org/2000/svg">
<g clip-path="url(#clip0_7_4)">
<path d="M215.042 -8.82952C211.909 -12.9595 207.351 -16.0925 201.797 -17.0894L160.356 -24.922C160.071 -23.3555 160.071 -21.6466 160.071 -20.08C160.071 -19.7952 160.071 -19.368 160.071 -19.0832C160.071 -18.9408 160.071 -18.7983 160.071 -18.6559C161.495 -7.12059 170.182 2.70581 182.145 4.9844L217.748 11.6777C218.175 10.5384 218.602 9.25675 218.744 7.97504C220.169 1.85134 218.46 -4.12994 215.042 -8.82952Z" stroke="#006848" stroke-width="1.42412" stroke-miterlimit="10"/>
<path d="M224.441 257.48C221.308 253.35 216.751 250.217 211.197 249.22L169.755 241.388C169.47 242.954 169.47 244.663 169.47 246.23C169.47 246.515 169.47 246.942 169.47 247.227C169.47 247.369 169.47 247.511 169.47 247.654C170.894 259.189 179.581 269.016 191.544 271.294L227.147 277.988C227.574 276.848 228.001 275.567 228.144 274.285C229.568 268.304 228.001 262.18 224.441 257.48Z" stroke="#006848" stroke-width="1.42412" stroke-miterlimit="10"/>
<path d="M319.714 27.343C321.423 18.7983 320.284 9.54158 315.299 1.28171L278.842 -59.8129C276.563 -58.2464 274.427 -56.5374 272.433 -54.6861C272.006 -54.2588 271.579 -53.8316 271.152 -53.4044C271.009 -53.2619 270.867 -53.1195 270.582 -52.8347C257.48 -38.1663 254.774 -16.2349 265.455 1.56653L296.786 53.974C298.78 53.262 300.773 52.2651 302.625 51.1258C311.882 45.8566 317.72 37.027 319.714 27.343Z" stroke="#006848" stroke-width="1.42412" stroke-miterlimit="10"/>
<path d="M131.588 175.594C123.186 178.157 115.638 183.711 110.796 191.828L74.6238 253.065C77.0448 254.347 79.6082 255.344 82.1716 256.199C82.7412 256.341 83.3109 256.626 83.8805 256.768C84.1654 256.768 84.3078 256.911 84.5926 256.911C103.676 261.325 124.325 253.208 134.864 235.406L165.91 182.857C164.343 181.432 162.634 180.151 160.64 179.011C151.526 173.6 140.988 172.745 131.588 175.594Z" stroke="#006848" stroke-width="1.42412" stroke-miterlimit="10"/>
<path d="M98.2641 47.1383C98.1217 40.8721 95.8431 34.7484 91.1435 29.764L56.5375 -6.83576C55.1133 -5.41165 53.974 -3.84511 52.9772 -2.27858C52.6923 -1.85135 52.5499 -1.56653 52.2651 -1.1393C52.1227 -0.996885 52.1227 -0.854469 51.9803 -0.712057C45.1445 11.5353 46.7111 27.0582 56.8223 37.7391L86.5863 69.2121C87.868 68.3576 89.0073 67.5031 90.1466 66.3638C95.7007 61.0946 98.4065 54.1164 98.2641 47.1383Z" stroke="#006848" stroke-width="1.42412" stroke-miterlimit="10"/>
<path d="M184.708 165.055C184.423 162.064 182.999 159.074 180.578 156.938L162.349 140.56C161.78 141.272 161.21 142.127 160.783 142.839C160.64 142.981 160.64 143.266 160.498 143.409C160.498 143.551 160.356 143.551 160.356 143.693C157.507 149.817 158.931 157.365 164.201 162.207L179.866 176.306C180.436 175.878 181.005 175.309 181.575 174.739C183.996 172.033 184.993 168.473 184.708 165.055Z" stroke="#006848" stroke-width="1.42412" stroke-miterlimit="10"/>
<path d="M229.568 50.2713C228.998 38.1663 224.156 26.2037 215.042 17.0894L145.829 -52.1227C143.266 -49.2744 140.987 -46.2838 139.136 -43.1507C138.709 -42.4387 138.282 -41.7266 137.854 -41.0146C137.712 -40.7297 137.57 -40.4449 137.427 -40.1601C124.895 -16.2349 128.74 14.0987 148.82 34.1788L208.206 93.5644C210.627 91.8555 212.905 90.0041 215.042 87.868C225.295 77.6143 230.137 63.9428 229.568 50.2713Z" stroke="#006848" stroke-width="1.42412" stroke-miterlimit="10"/>
<path d="M390.208 213.475C381.236 198.095 366.852 185.705 348.481 180.008L210.912 136.858C209.488 142.269 208.633 147.823 208.206 153.235C208.206 154.517 208.063 155.656 208.063 156.938C208.063 157.365 208.063 157.935 208.063 158.362C208.063 198.095 233.698 234.979 273.715 247.654L391.775 284.681C393.768 280.836 395.477 276.848 396.901 272.576C403.31 251.926 400.319 230.707 390.208 213.475Z" stroke="#006848" stroke-width="1.42412" stroke-miterlimit="10"/>
<path d="M295.647 56.1102C293.368 53.1195 290.093 50.9834 286.105 50.1289L256.341 44.5748C256.199 45.7141 256.199 46.8534 256.199 47.9927C256.199 48.2775 256.199 48.5624 256.199 48.7048C256.199 48.8472 256.199 48.8472 256.199 48.9896C257.195 57.2495 263.462 64.3701 272.006 65.9366L297.498 70.7786C297.783 69.9241 298.068 69.0696 298.21 68.0728C299.349 63.8004 298.21 59.5281 295.647 56.1102Z" stroke="#006848" stroke-width="1.42412" stroke-miterlimit="10"/>
<path d="M122.189 192.683C118.059 187.271 112.078 183.284 104.815 181.86L50.6986 171.606C50.4138 173.742 50.2714 175.878 50.4138 177.872C50.4138 178.299 50.4138 178.869 50.5562 179.296C50.5562 179.439 50.5562 179.724 50.5562 179.866C52.4075 194.962 63.8005 207.779 79.4657 210.769L125.892 219.456C126.462 217.89 126.889 216.323 127.316 214.614C128.883 206.639 126.746 198.807 122.189 192.683Z" stroke="#006848" stroke-width="1.42412" stroke-miterlimit="10"/>
<path d="M85.447 95.4158C82.314 87.1559 76.3327 80.0353 67.9304 75.763L4.55721 43.4355C3.41792 45.999 2.56345 48.5624 1.85139 51.1258C1.70898 51.6954 1.56657 52.2651 1.42416 52.8347C1.42416 53.1195 1.28175 53.2619 1.28175 53.5468C-1.99372 72.9148 7.40545 92.9948 25.7765 102.394L80.1778 130.164C81.4595 128.455 82.5988 126.604 83.5957 124.753C88.5801 115.211 88.8649 104.673 85.447 95.4158Z" stroke="#006848" stroke-width="1.42412" stroke-miterlimit="10"/>
<path d="M197.24 105.242C194.819 100.115 190.547 95.8431 184.85 93.4221L141.984 76.0478C141.415 77.7568 140.988 79.4657 140.703 81.1746C140.703 81.6019 140.56 81.8867 140.56 82.3139C140.56 82.4564 140.56 82.5988 140.56 82.7412C139.563 95.4158 146.826 107.948 159.216 112.932L195.958 127.886C196.67 126.746 197.383 125.465 197.952 124.183C200.373 117.917 199.946 111.081 197.24 105.242Z" stroke="#006848" stroke-width="1.42412" stroke-miterlimit="10"/>
<path d="M375.967 110.084C367.849 102.679 357.169 98.1216 345.348 98.1216H256.768C256.911 101.539 257.48 104.957 258.192 108.233C258.335 108.945 258.477 109.657 258.762 110.369C258.904 110.654 258.904 110.939 259.047 111.224C266.452 134.579 288.241 151.526 314.018 151.526H390.066C390.493 148.963 390.778 146.257 390.778 143.551C390.778 130.164 385.081 118.344 375.967 110.084Z" stroke="#006848" stroke-width="1.42412" stroke-miterlimit="10"/>
<path d="M559.963 -8.82952C556.83 -12.9595 552.272 -16.0925 546.718 -17.0894L505.277 -24.922C504.992 -23.3555 504.992 -21.6466 504.992 -20.08C504.992 -19.7952 504.992 -19.368 504.992 -19.0832C504.992 -18.9408 504.992 -18.7983 504.992 -18.6559C506.416 -7.12059 515.103 2.70581 527.066 4.9844L562.669 11.6777C563.096 10.5384 563.523 9.25675 563.665 7.97504C565.09 1.85134 563.381 -4.12994 559.963 -8.82952Z" stroke="#006848" stroke-width="1.42412" stroke-miterlimit="10"/>
<path d="M569.362 257.48C566.229 253.35 561.672 250.217 556.117 249.22L514.676 241.388C514.391 242.954 514.391 244.663 514.391 246.23C514.391 246.515 514.391 246.942 514.391 247.227C514.391 247.369 514.391 247.511 514.391 247.654C515.815 259.189 524.502 269.016 536.465 271.294L572.068 277.988C572.495 276.848 572.922 275.567 573.064 274.285C574.489 268.304 572.78 262.18 569.362 257.48Z" stroke="#006848" stroke-width="1.42412" stroke-miterlimit="10"/>
<path d="M664.493 27.343C666.202 18.7983 665.062 9.54156 660.078 1.28168L623.763 -59.6705C621.484 -58.104 619.348 -56.395 617.354 -54.5437C616.927 -54.1164 616.5 -53.6892 616.073 -53.262C615.93 -53.1196 615.788 -52.9772 615.503 -52.6923C602.401 -38.0239 599.695 -16.0925 610.376 1.70891L641.707 54.1164C643.701 53.4043 645.694 52.4075 647.546 51.2682C656.66 45.8565 662.499 37.027 664.493 27.343Z" stroke="#006848" stroke-width="1.42412" stroke-miterlimit="10"/>
<path d="M476.509 175.594C468.107 178.157 460.559 183.711 455.717 191.828L419.545 253.065C421.966 254.347 424.529 255.344 427.093 256.199C427.662 256.341 428.232 256.626 428.802 256.768C429.086 256.768 429.229 256.911 429.514 256.911C448.597 261.325 469.246 253.208 479.785 235.406L510.831 182.857C509.264 181.432 507.555 180.151 505.561 179.011C496.447 173.6 485.909 172.745 476.509 175.594Z" stroke="#006848" stroke-width="1.42412" stroke-miterlimit="10"/>
<path d="M443.185 47.1383C443.043 40.8721 440.764 34.7484 436.064 29.764L401.316 -6.83576C399.892 -5.41165 398.753 -3.84511 397.756 -2.27858C397.471 -1.85135 397.328 -1.56653 397.044 -1.1393C396.901 -0.996885 396.901 -0.854469 396.759 -0.712057C389.923 11.5353 391.49 27.0582 401.601 37.7391L431.365 69.2121C432.647 68.3576 433.786 67.5031 434.925 66.3638C440.622 61.0946 443.327 54.1164 443.185 47.1383Z" stroke="#006848" stroke-width="1.42412" stroke-miterlimit="10"/>
<path d="M529.487 165.055C529.202 162.064 527.778 159.074 525.357 156.938L507.128 140.418C506.558 141.13 505.989 141.984 505.561 142.696C505.419 142.839 505.419 143.124 505.277 143.266C505.277 143.409 505.134 143.409 505.134 143.551C502.286 149.675 503.71 157.222 508.979 162.064L524.645 176.163C525.214 175.736 525.784 175.166 526.354 174.597C528.775 172.033 529.914 168.473 529.487 165.055Z" stroke="#006848" stroke-width="1.42412" stroke-miterlimit="10"/>
<path d="M574.489 50.2713C573.919 38.1663 569.077 26.2037 559.963 17.0894L490.751 -52.1227C488.187 -49.2744 485.909 -46.2838 484.057 -43.1507C483.63 -42.4387 483.203 -41.7266 482.776 -41.0146C482.633 -40.7297 482.491 -40.4449 482.348 -40.1601C469.816 -16.2349 473.661 14.0987 493.741 34.1788L553.127 93.5644C555.548 91.8555 557.827 90.0041 559.963 87.868C570.216 77.6143 575.058 63.9428 574.489 50.2713Z" stroke="#006848" stroke-width="1.42412" stroke-miterlimit="10"/>
<path d="M735.129 213.475C726.157 198.095 711.773 185.705 693.402 180.008L555.833 136.858C554.408 142.269 553.554 147.823 553.127 153.235C553.127 154.517 552.984 155.656 552.984 156.938C552.984 157.365 552.984 157.935 552.984 158.362C552.984 198.095 578.618 234.979 618.636 247.654L736.695 284.681C738.689 280.836 740.398 276.848 741.822 272.576C748.231 251.926 745.098 230.707 735.129 213.475Z" stroke="#006848" stroke-width="1.42412" stroke-miterlimit="10"/>
<path d="M640.568 56.1102C638.289 53.1195 635.014 50.9834 631.026 50.1289L601.262 44.5748C601.12 45.7141 601.12 46.8534 601.12 47.9927C601.12 48.2775 601.12 48.5624 601.12 48.7048C601.12 48.8472 601.12 48.8472 601.12 48.9896C602.117 57.2495 608.383 64.3701 616.927 65.9366L642.419 70.7786C642.704 69.9241 642.989 69.0696 643.131 68.0728C644.27 63.8004 642.989 59.5281 640.568 56.1102Z" stroke="#006848" stroke-width="1.42412" stroke-miterlimit="10"/>
<path d="M467.11 192.683C462.98 187.271 456.999 183.284 449.736 181.86L395.62 171.606C395.335 173.742 395.192 175.878 395.335 177.872C395.335 178.299 395.335 178.869 395.477 179.296C395.477 179.439 395.477 179.724 395.477 179.866C397.329 194.962 408.721 207.921 424.387 210.769L470.813 219.456C471.383 217.89 471.81 216.323 472.237 214.614C473.804 206.639 471.667 198.807 467.11 192.683Z" stroke="#006848" stroke-width="1.42412" stroke-miterlimit="10"/>
<path d="M430.226 95.4158C427.093 87.1559 421.111 80.0353 412.709 75.763L349.336 43.4355C348.196 45.999 347.342 48.5624 346.63 51.1258C346.488 51.6954 346.345 52.2651 346.203 52.8347C346.203 53.1195 346.06 53.2619 346.06 53.5468C342.785 72.9148 352.184 92.9948 370.555 102.394L424.956 130.164C426.238 128.455 427.377 126.604 428.374 124.753C433.501 115.211 433.643 104.673 430.226 95.4158Z" stroke="#006848" stroke-width="1.42412" stroke-miterlimit="10"/>
<path d="M542.019 105.242C539.598 100.115 535.325 95.8431 529.629 93.4221L486.763 76.0478C486.193 77.7568 485.766 79.4657 485.481 81.1746C485.481 81.6019 485.339 81.8867 485.339 82.3139C485.339 82.4564 485.339 82.5988 485.339 82.7412C484.342 95.4158 491.605 107.948 503.995 112.932L540.737 127.886C541.449 126.746 542.161 125.465 542.731 124.183C545.294 117.917 544.867 111.081 542.019 105.242Z" stroke="#006848" stroke-width="1.42412" stroke-miterlimit="10"/>
<path d="M720.888 110.084C712.77 102.679 702.089 98.1216 690.269 98.1216H601.689C601.832 101.539 602.401 104.957 603.113 108.233C603.256 108.945 603.398 109.657 603.683 110.369C603.825 110.654 603.825 110.939 603.968 111.224C611.373 134.579 633.162 151.526 658.939 151.526H734.844C735.271 148.963 735.556 146.257 735.556 143.551C735.699 130.164 730.002 118.344 720.888 110.084Z" stroke="#006848" stroke-width="1.42412" stroke-miterlimit="10"/>
<path d="M215.042 337.088C211.909 332.958 207.351 329.825 201.797 328.828L160.356 320.996C160.071 322.562 160.071 324.271 160.071 325.838C160.071 326.123 160.071 326.55 160.071 326.835C160.071 326.977 160.071 327.12 160.071 327.262C161.495 338.797 170.182 348.624 182.145 350.902L217.748 357.596C218.175 356.456 218.602 355.175 218.744 353.893C220.169 347.912 218.46 341.788 215.042 337.088Z" stroke="#006848" stroke-width="1.42412" stroke-miterlimit="10"/>
<path d="M224.441 603.54C221.308 599.411 216.751 596.278 211.197 595.281L169.755 587.448C169.47 589.015 169.47 590.723 169.47 592.29C169.47 592.575 169.47 593.002 169.47 593.287C169.47 593.429 169.47 593.572 169.47 593.714C170.894 605.249 179.581 615.076 191.544 617.354L227.147 624.048C227.574 622.909 228.001 621.627 228.144 620.345C229.568 614.221 228.001 608.24 224.441 603.54Z" stroke="#006848" stroke-width="1.42412" stroke-miterlimit="10"/>
<path d="M319.714 373.403C321.423 364.859 320.284 355.602 315.299 347.342L278.842 286.247C276.563 287.814 274.427 289.523 272.433 291.374C272.006 291.801 271.579 292.229 271.152 292.656C271.009 292.798 270.867 292.941 270.582 293.226C257.48 307.894 254.774 329.825 265.455 347.627L296.786 400.034C298.78 399.322 300.773 398.325 302.625 397.186C311.882 391.774 317.72 382.945 319.714 373.403Z" stroke="#006848" stroke-width="1.42412" stroke-miterlimit="10"/>
<path d="M131.588 521.511C123.186 524.075 115.638 529.629 110.796 537.746L74.6238 598.983C77.0448 600.265 79.6082 601.262 82.1716 602.116C82.7412 602.259 83.3109 602.544 83.8805 602.686C84.1654 602.686 84.3078 602.828 84.5926 602.828C103.676 607.243 124.325 599.126 134.864 581.324L165.91 528.774C164.343 527.35 162.634 526.069 160.64 524.929C151.526 519.518 140.988 518.663 131.588 521.511Z" stroke="#006848" stroke-width="1.42412" stroke-miterlimit="10"/>
<path d="M111.081 304.903C109.372 296.216 104.673 288.241 97.1248 282.545L40.0177 240.106C38.4512 242.385 37.1695 244.806 36.1726 247.227C35.8878 247.796 35.7454 248.366 35.4605 248.936C35.3181 249.22 35.3181 249.363 35.1757 249.648C28.7672 268.161 34.6061 289.523 51.2682 301.913L100.258 338.37C101.824 336.946 103.248 335.379 104.53 333.528C110.939 324.983 112.932 314.587 111.081 304.903Z" stroke="#006848" stroke-width="1.42412" stroke-miterlimit="10"/>
<path d="M329.968 277.56C323.559 271.579 314.872 268.019 305.473 268.019H234.41C234.552 270.725 234.979 273.43 235.549 276.136C235.691 276.706 235.834 277.275 235.976 277.845C235.976 278.13 236.119 278.272 236.119 278.557C241.957 297.213 259.474 310.885 280.124 310.885H341.218C341.646 308.748 341.788 306.612 341.788 304.476C341.788 293.795 337.231 284.254 329.968 277.56Z" stroke="#006848" stroke-width="1.42412" stroke-miterlimit="10"/>
<path d="M98.2641 393.056C98.1217 386.79 95.8431 380.666 91.1436 375.682L56.3951 339.082C54.971 340.506 53.8317 342.073 52.8348 343.639C52.55 344.067 52.4076 344.351 52.1228 344.779C51.9804 344.921 51.9804 345.063 51.838 345.206C45.0022 357.453 46.5687 372.976 56.6799 383.657L86.444 415.13C87.7257 414.275 88.865 413.421 90.0043 412.282C95.7007 407.155 98.4066 400.034 98.2641 393.056Z" stroke="#006848" stroke-width="1.42412" stroke-miterlimit="10"/>
<path d="M184.708 511.115C184.423 508.125 182.999 505.134 180.578 502.998L162.349 486.478C161.78 487.19 161.21 488.045 160.783 488.757C160.64 488.899 160.64 489.184 160.498 489.326C160.498 489.469 160.356 489.469 160.356 489.611C157.507 495.735 158.931 503.283 164.201 508.125L179.866 522.223C180.436 521.796 181.005 521.227 181.575 520.657C183.996 517.951 184.993 514.533 184.708 511.115Z" stroke="#006848" stroke-width="1.42412" stroke-miterlimit="10"/>
<path d="M229.568 396.332C228.998 384.227 224.156 372.264 215.042 363.15L145.829 293.938C143.266 296.786 140.987 299.776 139.136 302.91C138.709 303.622 138.282 304.334 137.854 305.046C137.712 305.331 137.57 305.615 137.427 305.9C124.895 329.825 128.74 360.159 148.82 380.239L208.206 439.625C210.627 437.916 212.905 436.064 215.042 433.928C225.295 423.532 230.137 409.861 229.568 396.332Z" stroke="#006848" stroke-width="1.42412" stroke-miterlimit="10"/>
<path d="M390.208 559.393C381.236 544.012 366.853 531.623 348.481 525.926L211.054 482.775C209.63 488.187 208.776 493.741 208.348 499.153C208.348 500.435 208.206 501.574 208.206 502.856C208.206 503.283 208.206 503.852 208.206 504.28C208.206 544.012 233.84 580.897 273.858 593.572L391.917 630.599C393.911 626.754 395.62 622.766 397.044 618.494C403.31 597.986 400.319 576.767 390.208 559.393Z" stroke="#006848" stroke-width="1.42412" stroke-miterlimit="10"/>
<path d="M295.647 402.17C293.368 399.18 290.093 397.044 286.105 396.189L256.341 390.635C256.199 391.774 256.199 392.914 256.199 394.053C256.199 394.338 256.199 394.623 256.199 394.765C256.199 394.907 256.199 394.907 256.199 395.05C257.195 403.31 263.462 410.43 272.006 411.997L297.498 416.839C297.783 415.984 298.068 415.13 298.21 414.133C299.349 409.861 298.21 405.446 295.647 402.17Z" stroke="#006848" stroke-width="1.42412" stroke-miterlimit="10"/>
<path d="M122.189 538.601C118.059 533.189 112.078 529.202 104.815 527.777L50.6986 517.524C50.4138 519.66 50.2714 521.796 50.4138 523.79C50.4138 524.217 50.4138 524.787 50.5562 525.214C50.5562 525.356 50.5562 525.641 50.5562 525.784C52.4075 540.879 63.8005 553.696 79.4657 556.687L125.892 565.374C126.462 563.808 126.889 562.241 127.316 560.532C128.883 552.699 126.746 544.724 122.189 538.601Z" stroke="#006848" stroke-width="1.42412" stroke-miterlimit="10"/>
<path d="M85.447 441.476C82.314 433.216 76.3327 426.096 67.9304 421.823L4.55721 389.496C3.41792 392.059 2.56345 394.623 1.85139 397.186C1.70898 397.756 1.56657 398.325 1.42416 398.895C1.42416 399.18 1.28175 399.322 1.28175 399.607C-1.99372 418.975 7.40545 439.055 25.7765 448.454L80.1778 476.225C81.4595 474.516 82.5988 472.664 83.5957 470.813C88.5801 461.271 88.8649 450.733 85.447 441.476Z" stroke="#006848" stroke-width="1.42412" stroke-miterlimit="10"/>
<path d="M197.24 451.302C194.819 446.176 190.547 441.903 184.85 439.482L141.984 422.108C141.415 423.817 140.988 425.526 140.703 427.235C140.703 427.662 140.56 427.947 140.56 428.374C140.56 428.517 140.56 428.659 140.56 428.801C139.563 441.476 146.826 454.008 159.216 458.993L195.958 473.946C196.67 472.807 197.383 471.525 197.952 470.243C200.373 463.835 199.946 456.999 197.24 451.302Z" stroke="#006848" stroke-width="1.42412" stroke-miterlimit="10"/>
<path d="M375.967 456.002C367.849 448.597 357.169 444.039 345.348 444.039H256.768C256.911 447.457 257.48 450.875 258.192 454.151C258.335 454.863 258.477 455.575 258.762 456.287C258.904 456.572 258.904 456.857 259.047 457.141C266.452 480.497 288.241 497.444 314.018 497.444H390.066C390.493 494.88 390.778 492.175 390.778 489.469C390.778 476.225 385.081 464.262 375.967 456.002Z" stroke="#006848" stroke-width="1.42412" stroke-miterlimit="10"/>
<path d="M559.963 337.088C556.83 332.958 552.272 329.825 546.718 328.828L505.277 320.996C504.992 322.562 504.992 324.271 504.992 325.838C504.992 326.123 504.992 326.55 504.992 326.835C504.992 326.977 504.992 327.12 504.992 327.262C506.416 338.797 515.103 348.624 527.066 350.902L562.669 357.596C563.096 356.456 563.523 355.175 563.665 353.893C565.09 347.912 563.381 341.788 559.963 337.088Z" stroke="#006848" stroke-width="1.42412" stroke-miterlimit="10"/>
<path d="M569.362 603.54C566.229 599.411 561.672 596.278 556.117 595.281L514.676 587.448C514.391 589.015 514.391 590.723 514.391 592.29C514.391 592.575 514.391 593.002 514.391 593.287C514.391 593.429 514.391 593.572 514.391 593.714C515.815 605.249 524.502 615.076 536.465 617.354L572.068 624.048C572.495 622.909 572.922 621.627 573.064 620.345C574.489 614.221 572.78 608.24 569.362 603.54Z" stroke="#006848" stroke-width="1.42412" stroke-miterlimit="10"/>
<path d="M664.493 373.403C666.202 364.859 665.062 355.602 660.078 347.342L623.763 286.247C621.484 287.814 619.348 289.523 617.354 291.374C616.927 291.801 616.5 292.229 616.073 292.656C615.93 292.798 615.788 292.941 615.503 293.226C602.401 307.894 599.695 329.825 610.376 347.627L641.707 400.034C643.701 399.322 645.694 398.325 647.546 397.186C656.66 391.774 662.499 382.945 664.493 373.403Z" stroke="#006848" stroke-width="1.42412" stroke-miterlimit="10"/>
<path d="M476.509 521.511C468.107 524.075 460.559 529.629 455.717 537.746L419.545 598.983C421.966 600.265 424.529 601.262 427.093 602.116C427.662 602.259 428.232 602.544 428.802 602.686C429.086 602.686 429.229 602.828 429.514 602.828C448.597 607.243 469.246 599.126 479.785 581.324L510.831 528.774C509.264 527.35 507.555 526.069 505.561 524.929C496.447 519.518 485.909 518.663 476.509 521.511Z" stroke="#006848" stroke-width="1.42412" stroke-miterlimit="10"/>
<path d="M456.002 304.903C454.293 296.216 449.594 288.241 442.046 282.545L384.939 240.106C383.372 242.385 382.091 244.806 381.094 247.227C380.809 247.796 380.666 248.366 380.382 248.936C380.239 249.22 380.239 249.363 380.097 249.648C373.688 268.161 379.527 289.523 396.189 301.913L445.179 338.37C446.745 336.946 448.17 335.379 449.451 333.528C455.86 324.983 457.854 314.587 456.002 304.903Z" stroke="#006848" stroke-width="1.42412" stroke-miterlimit="10"/>
<path d="M674.746 277.56C668.338 271.579 659.651 268.019 650.252 268.019H579.188C579.331 270.725 579.758 273.43 580.328 276.136C580.47 276.706 580.612 277.275 580.755 277.845C580.755 278.13 580.897 278.272 580.897 278.557C586.736 297.213 604.253 310.885 624.902 310.885H685.997C686.424 308.748 686.567 306.612 686.567 304.476C686.709 293.795 682.009 284.254 674.746 277.56Z" stroke="#006848" stroke-width="1.42412" stroke-miterlimit="10"/>
<path d="M443.185 393.056C443.043 386.79 440.764 380.666 436.064 375.682L401.316 339.082C399.892 340.506 398.753 342.073 397.756 343.639C397.471 344.067 397.328 344.351 397.044 344.779C396.901 344.921 396.901 345.063 396.759 345.206C389.923 357.453 391.49 372.976 401.601 383.657L431.365 415.13C432.647 414.275 433.786 413.421 434.925 412.282C440.622 407.155 443.327 400.034 443.185 393.056Z" stroke="#006848" stroke-width="1.42412" stroke-miterlimit="10"/>
<path d="M529.487 511.115C529.202 508.125 527.778 505.134 525.357 502.998L507.128 486.478C506.558 487.19 505.989 488.045 505.561 488.757C505.419 488.899 505.419 489.184 505.277 489.326C505.277 489.469 505.134 489.469 505.134 489.611C502.286 495.735 503.71 503.283 508.979 508.125L524.645 522.223C525.214 521.796 525.784 521.227 526.354 520.657C528.775 517.951 529.914 514.533 529.487 511.115Z" stroke="#006848" stroke-width="1.42412" stroke-miterlimit="10"/>
<path d="M574.489 396.332C573.919 384.227 569.077 372.264 559.963 363.15L490.751 293.938C488.187 296.786 485.909 299.776 484.057 302.91C483.63 303.622 483.203 304.334 482.776 305.046C482.633 305.331 482.491 305.615 482.348 305.9C469.816 329.825 473.661 360.159 493.741 380.239L553.127 439.625C555.548 437.916 557.827 436.064 559.963 433.928C570.216 423.532 575.058 409.861 574.489 396.332Z" stroke="#006848" stroke-width="1.42412" stroke-miterlimit="10"/>
<path d="M735.129 559.393C726.157 544.012 711.773 531.623 693.402 525.926L555.833 482.775C554.408 488.187 553.554 493.741 553.127 499.153C553.127 500.435 552.984 501.574 552.984 502.856C552.984 503.283 552.984 503.852 552.984 504.28C552.984 544.012 578.618 580.897 618.636 593.572L736.695 630.599C738.689 626.754 740.398 622.766 741.822 618.494C748.231 597.986 745.098 576.767 735.129 559.393Z" stroke="#006848" stroke-width="1.42412" stroke-miterlimit="10"/>
<path d="M640.568 402.17C638.289 399.18 635.014 397.044 631.026 396.189L601.262 390.635C601.12 391.774 601.12 392.914 601.12 394.053C601.12 394.338 601.12 394.623 601.12 394.765C601.12 394.907 601.12 394.907 601.12 395.05C602.117 403.31 608.383 410.43 616.927 411.997L642.419 416.839C642.704 415.984 642.989 415.13 643.131 414.133C644.27 409.861 642.989 405.446 640.568 402.17Z" stroke="#006848" stroke-width="1.42412" stroke-miterlimit="10"/>
<path d="M467.11 538.601C462.98 533.189 456.999 529.202 449.736 527.777L395.62 517.524C395.335 519.66 395.192 521.796 395.335 523.79C395.335 524.217 395.335 524.787 395.477 525.214C395.477 525.356 395.477 525.641 395.477 525.784C397.329 540.879 408.721 553.696 424.387 556.687L470.813 565.374C471.383 563.808 471.81 562.241 472.237 560.532C473.804 552.699 471.667 544.724 467.11 538.601Z" stroke="#006848" stroke-width="1.42412" stroke-miterlimit="10"/>
<path d="M430.226 441.476C427.093 433.216 421.111 426.096 412.709 421.823L349.336 389.496C348.196 392.059 347.342 394.623 346.63 397.186C346.488 397.756 346.345 398.325 346.203 398.895C346.203 399.18 346.06 399.322 346.06 399.607C342.785 418.975 352.184 439.055 370.555 448.454L424.956 476.225C426.238 474.516 427.377 472.664 428.374 470.813C433.501 461.271 433.643 450.733 430.226 441.476Z" stroke="#006848" stroke-width="1.42412" stroke-miterlimit="10"/>
<path d="M542.019 451.302C539.598 446.176 535.325 441.903 529.629 439.482L486.763 422.108C486.193 423.817 485.766 425.526 485.481 427.235C485.481 427.662 485.339 427.947 485.339 428.374C485.339 428.517 485.339 428.659 485.339 428.801C484.342 441.476 491.605 454.008 503.995 458.993L540.737 473.946C541.449 472.807 542.161 471.525 542.731 470.243C545.294 463.835 544.867 456.999 542.019 451.302Z" stroke="#006848" stroke-width="1.42412" stroke-miterlimit="10"/>
<path d="M720.888 456.002C712.77 448.597 702.089 444.039 690.269 444.039H601.689C601.832 447.457 602.401 450.875 603.113 454.151C603.256 454.863 603.398 455.575 603.683 456.287C603.825 456.572 603.825 456.857 603.968 457.141C611.373 480.497 633.162 497.444 658.939 497.444H734.844C735.271 494.88 735.556 492.175 735.556 489.469C735.699 476.225 730.002 464.262 720.888 456.002Z" stroke="#006848" stroke-width="1.42412" stroke-miterlimit="10"/>
<path d="M111.081 650.536C109.372 641.849 104.673 633.874 97.1248 628.178L40.0177 585.739C38.4512 588.018 37.1695 590.439 36.1726 592.86C35.8878 593.429 35.7454 593.999 35.4605 594.569C35.3181 594.853 35.3181 594.996 35.1757 595.281C28.7672 613.794 34.6061 635.156 51.2682 647.546L100.258 684.003C101.824 682.579 103.248 681.013 104.53 679.161C110.939 670.474 112.932 660.078 111.081 650.536Z" stroke="#006848" stroke-width="1.42412" stroke-miterlimit="10"/>
<path d="M329.968 623.193C323.559 617.212 314.872 613.652 305.473 613.652H234.41C234.552 616.358 234.979 619.063 235.549 621.769C235.691 622.339 235.834 622.908 235.976 623.478C235.976 623.763 236.119 623.905 236.119 624.19C241.957 642.846 259.474 656.518 280.124 656.518H341.218C341.646 654.381 341.788 652.245 341.788 650.109C341.788 639.286 337.231 629.744 329.968 623.193Z" stroke="#006848" stroke-width="1.42412" stroke-miterlimit="10"/>
<path d="M456.002 650.536C454.293 641.849 449.594 633.874 442.046 628.178L384.939 585.739C383.372 588.018 382.091 590.439 381.094 592.86C380.809 593.429 380.666 593.999 380.382 594.569C380.239 594.853 380.239 594.996 380.097 595.281C373.688 613.794 379.527 635.156 396.189 647.546L445.179 684.003C446.745 682.579 448.17 681.013 449.451 679.161C455.86 670.474 457.854 660.078 456.002 650.536Z" stroke="#006848" stroke-width="1.42412" stroke-miterlimit="10"/>
<path d="M674.746 623.193C668.338 617.212 659.651 613.652 650.252 613.652H579.188C579.331 616.358 579.758 619.063 580.328 621.769C580.47 622.339 580.612 622.908 580.755 623.478C580.755 623.763 580.897 623.905 580.897 624.19C586.736 642.846 604.253 656.518 624.902 656.518H685.997C686.424 654.381 686.567 652.245 686.567 650.109C686.709 639.286 682.009 629.744 674.746 623.193Z" stroke="#006848" stroke-width="1.42412" stroke-miterlimit="10"/>
</g>
<defs>
<clipPath id="clip0_7_4">
<rect width="746.237" height="685" fill="white"/>
</clipPath>
</defs>
</svg>
