<svg width="100" height="48" viewBox="0 0 100 48" fill="none" xmlns="http://www.w3.org/2000/svg">
<path d="M50.1875 30.4531H51.2056L53.5944 37.4238L55.8854 30.4336H56.6686L58.9595 37.4238L61.3483 30.4531H62.3469L59.3511 38.8727H58.5483L56.2574 32.0979L53.9665 38.8727H53.1637L50.1875 30.4531Z" fill="#006848"/>
<path d="M62.6602 37.0322V37.0126C62.6602 35.7203 63.7371 35.0154 65.3035 35.0154C66.0868 35.0154 66.6546 35.1329 67.2028 35.2699V35.0546C67.2028 33.9385 66.5175 33.3706 65.3623 33.3706C64.6378 33.3706 64.07 33.5664 63.4826 33.821L63.2084 33.0769C63.8938 32.7636 64.5595 32.5678 65.4602 32.5678C66.3413 32.5678 67.007 32.8028 67.4574 33.2532C67.8686 33.6643 68.084 34.2713 68.084 35.0546V38.8336H67.2028V37.8937C66.7721 38.4615 66.0476 38.9511 64.9707 38.9511C63.8154 38.9511 62.6602 38.2853 62.6602 37.0322ZM67.2028 36.5427V35.9553C66.7525 35.8182 66.1455 35.7007 65.3819 35.7007C64.2266 35.7007 63.5805 36.2098 63.5805 36.9734V36.993C63.5805 37.7762 64.3049 38.2266 65.1273 38.2266C66.263 38.2266 67.2028 37.5217 67.2028 36.5427Z" fill="#006848"/>
<path d="M71.0993 30.1007H70.1791V38.814H71.0993V30.1007Z" fill="#006848"/>
<path d="M74.291 30.1007H73.3707V38.814H74.291V30.1007Z" fill="#006848"/>
<path d="M76.1119 35.7399V35.7203C76.1119 33.9385 77.3651 32.5091 79.0686 32.5091C80.8895 32.5091 81.9469 33.958 81.9469 35.779C81.9469 35.8965 81.9469 35.9748 81.9273 36.0727H77.0322C77.1693 37.4042 78.1091 38.1678 79.2056 38.1678C80.0476 38.1678 80.6546 37.8154 81.1441 37.2867L81.7119 37.7958C81.0853 38.4811 80.3413 38.9511 79.1665 38.9511C77.5021 38.9511 76.1119 37.6587 76.1119 35.7399ZM81.0266 35.3874C80.9287 34.2713 80.2825 33.2923 79.049 33.2923C77.972 33.2923 77.1692 34.193 77.0518 35.3874H81.0266Z" fill="#006848"/>
<path d="M83.9441 37.1888V33.4685H83.0825V32.6657H83.9441V30.8056H84.8644V32.6657H86.8224V33.4685H84.8644V37.0713C84.8644 37.8154 85.2756 38.0895 85.9021 38.0895C86.2154 38.0895 86.47 38.0308 86.8028 37.8741V38.6574C86.4895 38.8336 86.1371 38.9119 85.6867 38.9119C84.7077 38.9315 83.9441 38.442 83.9441 37.1888Z" fill="#006848"/>
<path d="M58.7441 5.87973C55.0042 2.45315 50.0308 0.33847 44.5679 0.33847H0.511925C0.590246 1.94406 0.825211 3.49092 1.17766 4.99861C1.25598 5.33148 1.3343 5.68392 1.4322 5.99721C1.47137 6.13427 1.51053 6.27134 1.54969 6.4084C4.95668 17.2168 15.0602 25.0685 27.0042 25.0685H65.2448C65.4602 23.8546 65.5972 22.621 65.5972 21.3483C65.5972 15.2196 62.9343 9.71749 58.7441 5.87973Z" fill="#006848"/>
<path d="M34.249 25.1077C34.3469 25.7147 34.4644 26.3217 34.6014 26.9287C34.6797 27.2615 34.7581 27.5944 34.856 27.9468L35.1301 27.8685L34.856 27.9468C34.8951 28.0839 34.9343 28.221 34.9734 28.358C38.4196 39.2839 48.621 47.214 60.7021 47.214H99.1581L99.1972 46.979C99.4126 45.765 99.5497 44.5119 99.5497 43.2196C99.5497 37.0126 96.8672 31.4322 92.6182 27.5357C88.8392 24.0699 83.7874 21.9161 78.2462 21.9161H65.5385V22.4839H78.2462C83.6504 22.4839 88.5455 24.5594 92.2462 27.9468C96.3776 31.7454 99.0014 37.1692 99.0014 43.2196C99.0014 44.4727 98.8643 45.6867 98.649 46.8811L98.9231 46.9398V46.6657H60.7217C48.9147 46.6657 38.9091 38.9119 35.5413 28.2014L35.2672 28.2797L35.5413 28.2014C35.5021 28.0643 35.463 27.9273 35.4238 27.7902C35.3259 27.4769 35.2476 27.144 35.1692 26.7916L34.8951 26.8699L35.1692 26.8112C35.0322 26.2238 34.9147 25.6364 34.8168 25.0294L34.249 25.1077Z" fill="#006848"/>
<path d="M45.8601 12.4979H37.6364V13.007V16.786H40.2406V14.3776H41.3371L42.8252 16.786H45.7818L44.0392 14.1818C44.8811 13.8685 45.5469 13.2615 45.8601 12.4979Z" fill="white"/>
<path d="M45.0182 9.38461C44.5091 8.91468 43.8238 8.62097 43.0798 8.62097H37.4602C37.4798 8.83636 37.4993 9.05174 37.5581 9.26713C37.5777 9.30629 37.5777 9.36503 37.5972 9.40419C37.5972 9.42377 37.6168 9.44335 37.6168 9.46293C38.0867 10.9315 39.4574 12.0084 41.1021 12.0084H45.9189C45.9581 11.8517 45.9581 11.6755 45.9581 11.4993C45.9581 10.6573 45.586 9.91328 45.0182 9.38461Z" fill="white"/>
<path d="M28.8448 9.6979L27.7679 13.4378H27.5916L26.5147 9.6979C26.3385 9.07132 25.7511 8.62097 25.0854 8.62097H22.5007V16.786H25.1049V11.9692H25.2812L26.7693 16.786H28.6294L30.1175 11.9692H30.2937V16.786H32.8979V8.62097H30.3133C29.6084 8.62097 29.021 9.07132 28.8448 9.6979Z" fill="white"/>
<path d="M36.5791 8.62097H33.9749V16.7664H36.5791V8.62097Z" fill="white"/>
</svg>
